<?xml version="1.0" standalone="no"?>
<!DOCTYPE svg PUBLIC "-//W3C//DTD SVG 20010904//EN"
 "http://www.w3.org/TR/2001/REC-SVG-20010904/DTD/svg10.dtd">
<svg version="1.0" xmlns="http://www.w3.org/2000/svg"
 width="512.000000pt" height="512.000000pt" viewBox="0 0 512.000000 512.000000"
 preserveAspectRatio="xMidYMid meet">
<metadata>
Created by potrace 1.11, written by Peter Selinger 2001-2013
</metadata>
<g transform="translate(0.000000,512.000000) scale(0.100000,-0.100000)"
fill="#000000" stroke="none">
<path d="M4869 5116 c-2 -2 -33 -7 -69 -10 -36 -4 -101 -11 -145 -16 -44 -5
-107 -12 -140 -15 -33 -4 -71 -8 -85 -10 -14 -2 -56 -7 -95 -10 -38 -3 -81 -8
-95 -10 -14 -3 -49 -7 -77 -10 -106 -10 -159 -16 -183 -20 -14 -2 -54 -7 -90
-10 -36 -4 -76 -8 -90 -10 -14 -2 -54 -6 -90 -10 -36 -3 -76 -8 -90 -10 -46
-6 -124 -15 -180 -20 -30 -3 -71 -7 -90 -10 -19 -2 -80 -9 -135 -15 -114 -12
-150 -16 -220 -25 -27 -3 -70 -8 -95 -10 -68 -7 -142 -15 -170 -20 -14 -2 -56
-6 -95 -10 -38 -3 -81 -8 -95 -10 -14 -2 -52 -7 -85 -10 -90 -9 -176 -19 -275
-30 -19 -3 -60 -7 -90 -10 -30 -3 -71 -7 -90 -10 -19 -2 -62 -7 -96 -10 -33
-3 -71 -7 -85 -9 -13 -3 -51 -7 -84 -11 -33 -3 -78 -9 -100 -11 -59 -7 -106
-35 -140 -83 l-30 -43 -1 -1649 c-1 -907 -3 -1652 -6 -1655 -4 -3 -30 7 -59
22 -115 58 -258 100 -369 110 -66 5 -207 5 -235 0 -11 -2 -45 -7 -75 -11 -68
-9 -211 -55 -282 -91 -281 -141 -445 -384 -433 -642 4 -95 5 -103 30 -177 17
-50 65 -142 95 -179 43 -56 145 -150 206 -189 169 -109 332 -157 549 -162 395
-9 734 169 879 461 67 136 64 62 65 1613 1 772 3 1407 6 1411 3 5 13 8 23 8
21 -1 145 12 175 18 12 2 53 6 92 9 38 3 81 8 95 10 14 2 48 6 75 9 28 3 109
13 180 21 72 8 155 17 185 20 72 8 127 14 170 20 19 2 64 7 100 10 36 4 79 8
95 10 17 2 75 9 130 15 55 6 116 13 135 15 19 3 60 7 90 10 58 6 93 10 230 25
47 6 105 12 130 15 25 3 104 12 175 20 72 8 155 17 185 20 30 3 66 8 80 10 14
2 54 6 90 10 36 3 81 8 100 10 81 9 147 17 170 20 21 3 70 8 196 18 17 2 18
-50 19 -1058 1 -583 -1 -1063 -3 -1068 -2 -4 -28 6 -57 22 -61 33 -209 86
-270 96 -118 19 -159 22 -255 20 -120 -3 -156 -8 -259 -37 -457 -125 -711
-511 -585 -888 84 -250 353 -454 680 -515 85 -16 264 -22 329 -11 17 3 48 7
71 11 278 39 555 235 658 465 57 126 54 23 55 2153 1 1843 0 1971 -16 2005
-35 74 -82 104 -168 108 -34 2 -64 2 -66 0z"/>
</g>
</svg>
